ISO-10303-21;
HEADER;
/* Generated by software containing ST-Developer
 * from STEP Tools, Inc. (www.steptools.com) 
 */

FILE_DESCRIPTION(
/* description */ (''),
/* implementation_level */ '2;1');

FILE_NAME(
/* name */ 'Bottom.step',
/* time_stamp */ '2026-06-08T18:58:40-05:00',
/* author */ (''),
/* organization */ (''),
/* preprocessor_version */ 'ST-DEVELOPER v20.1',
/* originating_system */ 'Autodesk Translation Framework v15.8.0.0',
/* authorisation */ '');

FILE_SCHEMA (('AUTOMOTIVE_DESIGN { 1 0 10303 214 3 1 1 }'));
ENDSEC;

DATA;
#10=MECHANICAL_DESIGN_GEOMETRIC_PRESENTATION_REPRESENTATION('',(#13),#923);
#11=SHAPE_REPRESENTATION_RELATIONSHIP('SRR','None',#930,#12);
#12=ADVANCED_BREP_SHAPE_REPRESENTATION('',(#14),#922);
#13=STYLED_ITEM('',(#939),#14);
#14=MANIFOLD_SOLID_BREP('Body1',#543);
#15=FACE_BOUND('',#77,.T.);
#16=FACE_BOUND('',#80,.T.);
#17=FACE_BOUND('',#83,.T.);
#18=FACE_BOUND('',#86,.T.);
#19=FACE_BOUND('',#98,.T.);
#20=FACE_BOUND('',#99,.T.);
#21=FACE_BOUND('',#100,.T.);
#22=FACE_BOUND('',#101,.T.);
#23=FACE_BOUND('',#113,.T.);
#24=FACE_BOUND('',#114,.T.);
#25=FACE_BOUND('',#115,.T.);
#26=FACE_BOUND('',#116,.T.);
#27=PLANE('',#560);
#28=PLANE('',#565);
#29=PLANE('',#570);
#30=PLANE('',#575);
#31=PLANE('',#585);
#32=PLANE('',#586);
#33=PLANE('',#587);
#34=PLANE('',#588);
#35=PLANE('',#592);
#36=PLANE('',#593);
#37=PLANE('',#599);
#38=PLANE('',#602);
#39=PLANE('',#605);
#40=PLANE('',#606);
#41=PLANE('',#607);
#42=PLANE('',#608);
#43=PLANE('',#609);
#44=PLANE('',#610);
#45=FACE_OUTER_BOUND('',#75,.T.);
#46=FACE_OUTER_BOUND('',#76,.T.);
#47=FACE_OUTER_BOUND('',#78,.T.);
#48=FACE_OUTER_BOUND('',#79,.T.);
#49=FACE_OUTER_BOUND('',#81,.T.);
#50=FACE_OUTER_BOUND('',#82,.T.);
#51=FACE_OUTER_BOUND('',#84,.T.);
#52=FACE_OUTER_BOUND('',#85,.T.);
#53=FACE_OUTER_BOUND('',#87,.T.);
#54=FACE_OUTER_BOUND('',#88,.T.);
#55=FACE_OUTER_BOUND('',#89,.T.);
#56=FACE_OUTER_BOUND('',#90,.T.);
#57=FACE_OUTER_BOUND('',#91,.T.);
#58=FACE_OUTER_BOUND('',#92,.T.);
#59=FACE_OUTER_BOUND('',#93,.T.);
#60=FACE_OUTER_BOUND('',#94,.T.);
#61=FACE_OUTER_BOUND('',#95,.T.);
#62=FACE_OUTER_BOUND('',#96,.T.);
#63=FACE_OUTER_BOUND('',#97,.T.);
#64=FACE_OUTER_BOUND('',#102,.T.);
#65=FACE_OUTER_BOUND('',#103,.T.);
#66=FACE_OUTER_BOUND('',#104,.T.);
#67=FACE_OUTER_BOUND('',#105,.T.);
#68=FACE_OUTER_BOUND('',#106,.T.);
#69=FACE_OUTER_BOUND('',#107,.T.);
#70=FACE_OUTER_BOUND('',#108,.T.);
#71=FACE_OUTER_BOUND('',#109,.T.);
#72=FACE_OUTER_BOUND('',#110,.T.);
#73=FACE_OUTER_BOUND('',#111,.T.);
#74=FACE_OUTER_BOUND('',#112,.T.);
#75=EDGE_LOOP('',(#357,#358,#359,#360));
#76=EDGE_LOOP('',(#361));
#77=EDGE_LOOP('',(#362));
#78=EDGE_LOOP('',(#363,#364,#365,#366));
#79=EDGE_LOOP('',(#367));
#80=EDGE_LOOP('',(#368));
#81=EDGE_LOOP('',(#369,#370,#371,#372));
#82=EDGE_LOOP('',(#373));
#83=EDGE_LOOP('',(#374));
#84=EDGE_LOOP('',(#375,#376,#377,#378));
#85=EDGE_LOOP('',(#379));
#86=EDGE_LOOP('',(#380));
#87=EDGE_LOOP('',(#381,#382,#383,#384));
#88=EDGE_LOOP('',(#385,#386,#387,#388));
#89=EDGE_LOOP('',(#389,#390,#391,#392));
#90=EDGE_LOOP('',(#393,#394,#395,#396));
#91=EDGE_LOOP('',(#397,#398,#399,#400));
#92=EDGE_LOOP('',(#401,#402,#403,#404));
#93=EDGE_LOOP('',(#405,#406,#407,#408,#409,#410,#411,#412));
#94=EDGE_LOOP('',(#413,#414,#415,#416));
#95=EDGE_LOOP('',(#417,#418,#419,#420));
#96=EDGE_LOOP('',(#421,#422,#423,#424));
#97=EDGE_LOOP('',(#425,#426,#427,#428,#429,#430,#431,#432,#433,#434,#435,
#436,#437,#438,#439,#440));
#98=EDGE_LOOP('',(#441));
#99=EDGE_LOOP('',(#442));
#100=EDGE_LOOP('',(#443));
#101=EDGE_LOOP('',(#444));
#102=EDGE_LOOP('',(#445,#446,#447,#448));
#103=EDGE_LOOP('',(#449,#450,#451,#452));
#104=EDGE_LOOP('',(#453,#454,#455,#456));
#105=EDGE_LOOP('',(#457,#458,#459,#460));
#106=EDGE_LOOP('',(#461,#462,#463,#464));
#107=EDGE_LOOP('',(#465,#466,#467,#468));
#108=EDGE_LOOP('',(#469,#470,#471,#472));
#109=EDGE_LOOP('',(#473,#474,#475,#476));
#110=EDGE_LOOP('',(#477,#478,#479,#480));
#111=EDGE_LOOP('',(#481,#482,#483,#484,#485,#486,#487,#488));
#112=EDGE_LOOP('',(#489,#490,#491,#492,#493,#494,#495,#496));
#113=EDGE_LOOP('',(#497));
#114=EDGE_LOOP('',(#498));
#115=EDGE_LOOP('',(#499));
#116=EDGE_LOOP('',(#500));
#117=LINE('',#774,#165);
#118=LINE('',#783,#166);
#119=LINE('',#792,#167);
#120=LINE('',#801,#168);
#121=LINE('',#809,#169);
#122=LINE('',#813,#170);
#123=LINE('',#817,#171);
#124=LINE('',#821,#172);
#125=LINE('',#825,#173);
#126=LINE('',#827,#174);
#127=LINE('',#829,#175);
#128=LINE('',#830,#176);
#129=LINE('',#834,#177);
#130=LINE('',#836,#178);
#131=LINE('',#838,#179);
#132=LINE('',#839,#180);
#133=LINE('',#841,#181);
#134=LINE('',#843,#182);
#135=LINE('',#845,#183);
#136=LINE('',#847,#184);
#137=LINE('',#849,#185);
#138=LINE('',#850,#186);
#139=LINE('',#853,#187);
#140=LINE('',#855,#188);
#141=LINE('',#856,#189);
#142=LINE('',#861,#190);
#143=LINE('',#865,#191);
#144=LINE('',#867,#192);
#145=LINE('',#868,#193);
#146=LINE('',#873,#194);
#147=LINE('',#877,#195);
#148=LINE('',#880,#196);
#149=LINE('',#882,#197);
#150=LINE('',#884,#198);
#151=LINE('',#885,#199);
#152=LINE('',#888,#200);
#153=LINE('',#892,#201);
#154=LINE('',#893,#202);
#155=LINE('',#896,#203);
#156=LINE('',#900,#204);
#157=LINE('',#901,#205);
#158=LINE('',#906,#206);
#159=LINE('',#907,#207);
#160=LINE('',#910,#208);
#161=LINE('',#911,#209);
#162=LINE('',#914,#210);
#163=LINE('',#915,#211);
#164=LINE('',#917,#212);
#165=VECTOR('',#617,2.35);
#166=VECTOR('',#628,2.34999999999999);
#167=VECTOR('',#639,2.35);
#168=VECTOR('',#650,2.34999999999999);
#169=VECTOR('',#661,1.7);
#170=VECTOR('',#666,1.7);
#171=VECTOR('',#671,1.7);
#172=VECTOR('',#676,1.7);
#173=VECTOR('',#679,10.);
#174=VECTOR('',#680,10.);
#175=VECTOR('',#681,10.);
#176=VECTOR('',#682,10.);
#177=VECTOR('',#685,10.);
#178=VECTOR('',#686,10.);
#179=VECTOR('',#687,10.);
#180=VECTOR('',#688,10.);
#181=VECTOR('',#691,10.);
#182=VECTOR('',#692,10.);
#183=VECTOR('',#693,10.);
#184=VECTOR('',#694,10.);
#185=VECTOR('',#695,10.);
#186=VECTOR('',#696,10.);
#187=VECTOR('',#699,10.);
#188=VECTOR('',#700,10.);
#189=VECTOR('',#701,10.);
#190=VECTOR('',#706,10.);
#191=VECTOR('',#711,10.);
#192=VECTOR('',#712,10.);
#193=VECTOR('',#713,10.);
#194=VECTOR('',#718,10.);
#195=VECTOR('',#721,10.);
#196=VECTOR('',#724,10.);
#197=VECTOR('',#725,10.);
#198=VECTOR('',#726,10.);
#199=VECTOR('',#727,10.);
#200=VECTOR('',#730,10.);
#201=VECTOR('',#735,10.);
#202=VECTOR('',#736,10.);
#203=VECTOR('',#739,10.);
#204=VECTOR('',#744,10.);
#205=VECTOR('',#745,10.);
#206=VECTOR('',#752,10.);
#207=VECTOR('',#753,10.);
#208=VECTOR('',#756,10.);
#209=VECTOR('',#757,10.);
#210=VECTOR('',#760,10.);
#211=VECTOR('',#761,10.);
#212=VECTOR('',#764,10.);
#213=CIRCLE('',#558,2.35);
#214=CIRCLE('',#559,2.35);
#215=CIRCLE('',#561,1.7);
#216=CIRCLE('',#563,2.34999999999999);
#217=CIRCLE('',#564,2.34999999999999);
#218=CIRCLE('',#566,1.7);
#219=CIRCLE('',#568,2.35);
#220=CIRCLE('',#569,2.35);
#221=CIRCLE('',#571,1.7);
#222=CIRCLE('',#573,2.34999999999999);
#223=CIRCLE('',#574,2.34999999999999);
#224=CIRCLE('',#576,1.7);
#225=CIRCLE('',#578,1.7);
#226=CIRCLE('',#580,1.7);
#227=CIRCLE('',#582,1.7);
#228=CIRCLE('',#584,1.7);
#229=CIRCLE('',#590,5.);
#230=CIRCLE('',#591,5.);
#231=CIRCLE('',#594,5.);
#232=CIRCLE('',#595,5.);
#233=CIRCLE('',#596,5.);
#234=CIRCLE('',#598,5.);
#235=CIRCLE('',#601,5.);
#236=CIRCLE('',#604,5.);
#237=VERTEX_POINT('',#771);
#238=VERTEX_POINT('',#773);
#239=VERTEX_POINT('',#777);
#240=VERTEX_POINT('',#780);
#241=VERTEX_POINT('',#782);
#242=VERTEX_POINT('',#786);
#243=VERTEX_POINT('',#789);
#244=VERTEX_POINT('',#791);
#245=VERTEX_POINT('',#795);
#246=VERTEX_POINT('',#798);
#247=VERTEX_POINT('',#800);
#248=VERTEX_POINT('',#804);
#249=VERTEX_POINT('',#807);
#250=VERTEX_POINT('',#811);
#251=VERTEX_POINT('',#815);
#252=VERTEX_POINT('',#819);
#253=VERTEX_POINT('',#823);
#254=VERTEX_POINT('',#824);
#255=VERTEX_POINT('',#826);
#256=VERTEX_POINT('',#828);
#257=VERTEX_POINT('',#832);
#258=VERTEX_POINT('',#833);
#259=VERTEX_POINT('',#835);
#260=VERTEX_POINT('',#837);
#261=VERTEX_POINT('',#842);
#262=VERTEX_POINT('',#844);
#263=VERTEX_POINT('',#846);
#264=VERTEX_POINT('',#848);
#265=VERTEX_POINT('',#852);
#266=VERTEX_POINT('',#854);
#267=VERTEX_POINT('',#858);
#268=VERTEX_POINT('',#860);
#269=VERTEX_POINT('',#864);
#270=VERTEX_POINT('',#866);
#271=VERTEX_POINT('',#870);
#272=VERTEX_POINT('',#872);
#273=VERTEX_POINT('',#874);
#274=VERTEX_POINT('',#876);
#275=VERTEX_POINT('',#879);
#276=VERTEX_POINT('',#881);
#277=VERTEX_POINT('',#883);
#278=VERTEX_POINT('',#887);
#279=VERTEX_POINT('',#891);
#280=VERTEX_POINT('',#895);
#281=VERTEX_POINT('',#899);
#282=VERTEX_POINT('',#905);
#283=VERTEX_POINT('',#909);
#284=VERTEX_POINT('',#913);
#285=EDGE_CURVE('',#237,#237,#213,.T.);
#286=EDGE_CURVE('',#237,#238,#117,.T.);
#287=EDGE_CURVE('',#238,#238,#214,.T.);
#288=EDGE_CURVE('',#239,#239,#215,.T.);
#289=EDGE_CURVE('',#240,#240,#216,.T.);
#290=EDGE_CURVE('',#240,#241,#118,.T.);
#291=EDGE_CURVE('',#241,#241,#217,.T.);
#292=EDGE_CURVE('',#242,#242,#218,.T.);
#293=EDGE_CURVE('',#243,#243,#219,.T.);
#294=EDGE_CURVE('',#243,#244,#119,.T.);
#295=EDGE_CURVE('',#244,#244,#220,.T.);
#296=EDGE_CURVE('',#245,#245,#221,.T.);
#297=EDGE_CURVE('',#246,#246,#222,.T.);
#298=EDGE_CURVE('',#246,#247,#120,.T.);
#299=EDGE_CURVE('',#247,#247,#223,.T.);
#300=EDGE_CURVE('',#248,#248,#224,.T.);
#301=EDGE_CURVE('',#249,#249,#225,.T.);
#302=EDGE_CURVE('',#249,#239,#121,.T.);
#303=EDGE_CURVE('',#250,#250,#226,.T.);
#304=EDGE_CURVE('',#250,#245,#122,.T.);
#305=EDGE_CURVE('',#251,#251,#227,.T.);
#306=EDGE_CURVE('',#251,#242,#123,.T.);
#307=EDGE_CURVE('',#252,#252,#228,.T.);
#308=EDGE_CURVE('',#252,#248,#124,.T.);
#309=EDGE_CURVE('',#253,#254,#125,.T.);
#310=EDGE_CURVE('',#253,#255,#126,.T.);
#311=EDGE_CURVE('',#256,#255,#127,.T.);
#312=EDGE_CURVE('',#254,#256,#128,.T.);
#313=EDGE_CURVE('',#257,#258,#129,.T.);
#314=EDGE_CURVE('',#259,#257,#130,.T.);
#315=EDGE_CURVE('',#260,#259,#131,.T.);
#316=EDGE_CURVE('',#258,#260,#132,.T.);
#317=EDGE_CURVE('',#258,#253,#133,.T.);
#318=EDGE_CURVE('',#261,#254,#134,.T.);
#319=EDGE_CURVE('',#262,#261,#135,.T.);
#320=EDGE_CURVE('',#263,#262,#136,.T.);
#321=EDGE_CURVE('',#264,#263,#137,.T.);
#322=EDGE_CURVE('',#257,#264,#138,.T.);
#323=EDGE_CURVE('',#265,#259,#139,.T.);
#324=EDGE_CURVE('',#266,#265,#140,.T.);
#325=EDGE_CURVE('',#260,#266,#141,.T.);
#326=EDGE_CURVE('',#261,#267,#229,.T.);
#327=EDGE_CURVE('',#267,#268,#142,.T.);
#328=EDGE_CURVE('',#268,#262,#230,.T.);
#329=EDGE_CURVE('',#269,#267,#143,.T.);
#330=EDGE_CURVE('',#270,#269,#144,.T.);
#331=EDGE_CURVE('',#268,#270,#145,.T.);
#332=EDGE_CURVE('',#271,#264,#231,.T.);
#333=EDGE_CURVE('',#271,#272,#146,.T.);
#334=EDGE_CURVE('',#273,#272,#232,.T.);
#335=EDGE_CURVE('',#273,#274,#147,.T.);
#336=EDGE_CURVE('',#269,#274,#233,.T.);
#337=EDGE_CURVE('',#256,#275,#148,.T.);
#338=EDGE_CURVE('',#275,#276,#149,.T.);
#339=EDGE_CURVE('',#276,#277,#150,.T.);
#340=EDGE_CURVE('',#277,#265,#151,.T.);
#341=EDGE_CURVE('',#274,#278,#152,.T.);
#342=EDGE_CURVE('',#278,#270,#234,.T.);
#343=EDGE_CURVE('',#279,#273,#153,.T.);
#344=EDGE_CURVE('',#278,#279,#154,.T.);
#345=EDGE_CURVE('',#272,#280,#155,.T.);
#346=EDGE_CURVE('',#280,#279,#235,.T.);
#347=EDGE_CURVE('',#281,#271,#156,.T.);
#348=EDGE_CURVE('',#280,#281,#157,.T.);
#349=EDGE_CURVE('',#263,#281,#236,.T.);
#350=EDGE_CURVE('',#266,#282,#158,.T.);
#351=EDGE_CURVE('',#282,#277,#159,.T.);
#352=EDGE_CURVE('',#282,#283,#160,.T.);
#353=EDGE_CURVE('',#283,#276,#161,.T.);
#354=EDGE_CURVE('',#283,#284,#162,.T.);
#355=EDGE_CURVE('',#284,#275,#163,.T.);
#356=EDGE_CURVE('',#284,#255,#164,.T.);
#357=ORIENTED_EDGE('',*,*,#285,.F.);
#358=ORIENTED_EDGE('',*,*,#286,.T.);
#359=ORIENTED_EDGE('',*,*,#287,.T.);
#360=ORIENTED_EDGE('',*,*,#286,.F.);
#361=ORIENTED_EDGE('',*,*,#287,.F.);
#362=ORIENTED_EDGE('',*,*,#288,.F.);
#363=ORIENTED_EDGE('',*,*,#289,.F.);
#364=ORIENTED_EDGE('',*,*,#290,.T.);
#365=ORIENTED_EDGE('',*,*,#291,.T.);
#366=ORIENTED_EDGE('',*,*,#290,.F.);
#367=ORIENTED_EDGE('',*,*,#291,.F.);
#368=ORIENTED_EDGE('',*,*,#292,.F.);
#369=ORIENTED_EDGE('',*,*,#293,.F.);
#370=ORIENTED_EDGE('',*,*,#294,.T.);
#371=ORIENTED_EDGE('',*,*,#295,.T.);
#372=ORIENTED_EDGE('',*,*,#294,.F.);
#373=ORIENTED_EDGE('',*,*,#295,.F.);
#374=ORIENTED_EDGE('',*,*,#296,.F.);
#375=ORIENTED_EDGE('',*,*,#297,.F.);
#376=ORIENTED_EDGE('',*,*,#298,.T.);
#377=ORIENTED_EDGE('',*,*,#299,.T.);
#378=ORIENTED_EDGE('',*,*,#298,.F.);
#379=ORIENTED_EDGE('',*,*,#299,.F.);
#380=ORIENTED_EDGE('',*,*,#300,.F.);
#381=ORIENTED_EDGE('',*,*,#301,.F.);
#382=ORIENTED_EDGE('',*,*,#302,.T.);
#383=ORIENTED_EDGE('',*,*,#288,.T.);
#384=ORIENTED_EDGE('',*,*,#302,.F.);
#385=ORIENTED_EDGE('',*,*,#303,.F.);
#386=ORIENTED_EDGE('',*,*,#304,.T.);
#387=ORIENTED_EDGE('',*,*,#296,.T.);
#388=ORIENTED_EDGE('',*,*,#304,.F.);
#389=ORIENTED_EDGE('',*,*,#305,.F.);
#390=ORIENTED_EDGE('',*,*,#306,.T.);
#391=ORIENTED_EDGE('',*,*,#292,.T.);
#392=ORIENTED_EDGE('',*,*,#306,.F.);
#393=ORIENTED_EDGE('',*,*,#307,.F.);
#394=ORIENTED_EDGE('',*,*,#308,.T.);
#395=ORIENTED_EDGE('',*,*,#300,.T.);
#396=ORIENTED_EDGE('',*,*,#308,.F.);
#397=ORIENTED_EDGE('',*,*,#309,.F.);
#398=ORIENTED_EDGE('',*,*,#310,.T.);
#399=ORIENTED_EDGE('',*,*,#311,.F.);
#400=ORIENTED_EDGE('',*,*,#312,.F.);
#401=ORIENTED_EDGE('',*,*,#313,.F.);
#402=ORIENTED_EDGE('',*,*,#314,.F.);
#403=ORIENTED_EDGE('',*,*,#315,.F.);
#404=ORIENTED_EDGE('',*,*,#316,.F.);
#405=ORIENTED_EDGE('',*,*,#313,.T.);
#406=ORIENTED_EDGE('',*,*,#317,.T.);
#407=ORIENTED_EDGE('',*,*,#309,.T.);
#408=ORIENTED_EDGE('',*,*,#318,.F.);
#409=ORIENTED_EDGE('',*,*,#319,.F.);
#410=ORIENTED_EDGE('',*,*,#320,.F.);
#411=ORIENTED_EDGE('',*,*,#321,.F.);
#412=ORIENTED_EDGE('',*,*,#322,.F.);
#413=ORIENTED_EDGE('',*,*,#315,.T.);
#414=ORIENTED_EDGE('',*,*,#323,.F.);
#415=ORIENTED_EDGE('',*,*,#324,.F.);
#416=ORIENTED_EDGE('',*,*,#325,.F.);
#417=ORIENTED_EDGE('',*,*,#326,.T.);
#418=ORIENTED_EDGE('',*,*,#327,.T.);
#419=ORIENTED_EDGE('',*,*,#328,.T.);
#420=ORIENTED_EDGE('',*,*,#319,.T.);
#421=ORIENTED_EDGE('',*,*,#327,.F.);
#422=ORIENTED_EDGE('',*,*,#329,.F.);
#423=ORIENTED_EDGE('',*,*,#330,.F.);
#424=ORIENTED_EDGE('',*,*,#331,.F.);
#425=ORIENTED_EDGE('',*,*,#314,.T.);
#426=ORIENTED_EDGE('',*,*,#322,.T.);
#427=ORIENTED_EDGE('',*,*,#332,.F.);
#428=ORIENTED_EDGE('',*,*,#333,.T.);
#429=ORIENTED_EDGE('',*,*,#334,.F.);
#430=ORIENTED_EDGE('',*,*,#335,.T.);
#431=ORIENTED_EDGE('',*,*,#336,.F.);
#432=ORIENTED_EDGE('',*,*,#329,.T.);
#433=ORIENTED_EDGE('',*,*,#326,.F.);
#434=ORIENTED_EDGE('',*,*,#318,.T.);
#435=ORIENTED_EDGE('',*,*,#312,.T.);
#436=ORIENTED_EDGE('',*,*,#337,.T.);
#437=ORIENTED_EDGE('',*,*,#338,.T.);
#438=ORIENTED_EDGE('',*,*,#339,.T.);
#439=ORIENTED_EDGE('',*,*,#340,.T.);
#440=ORIENTED_EDGE('',*,*,#323,.T.);
#441=ORIENTED_EDGE('',*,*,#301,.T.);
#442=ORIENTED_EDGE('',*,*,#303,.T.);
#443=ORIENTED_EDGE('',*,*,#305,.T.);
#444=ORIENTED_EDGE('',*,*,#307,.T.);
#445=ORIENTED_EDGE('',*,*,#336,.T.);
#446=ORIENTED_EDGE('',*,*,#341,.T.);
#447=ORIENTED_EDGE('',*,*,#342,.T.);
#448=ORIENTED_EDGE('',*,*,#330,.T.);
#449=ORIENTED_EDGE('',*,*,#341,.F.);
#450=ORIENTED_EDGE('',*,*,#335,.F.);
#451=ORIENTED_EDGE('',*,*,#343,.F.);
#452=ORIENTED_EDGE('',*,*,#344,.F.);
#453=ORIENTED_EDGE('',*,*,#334,.T.);
#454=ORIENTED_EDGE('',*,*,#345,.T.);
#455=ORIENTED_EDGE('',*,*,#346,.T.);
#456=ORIENTED_EDGE('',*,*,#343,.T.);
#457=ORIENTED_EDGE('',*,*,#345,.F.);
#458=ORIENTED_EDGE('',*,*,#333,.F.);
#459=ORIENTED_EDGE('',*,*,#347,.F.);
#460=ORIENTED_EDGE('',*,*,#348,.F.);
#461=ORIENTED_EDGE('',*,*,#332,.T.);
#462=ORIENTED_EDGE('',*,*,#321,.T.);
#463=ORIENTED_EDGE('',*,*,#349,.T.);
#464=ORIENTED_EDGE('',*,*,#347,.T.);
#465=ORIENTED_EDGE('',*,*,#350,.F.);
#466=ORIENTED_EDGE('',*,*,#324,.T.);
#467=ORIENTED_EDGE('',*,*,#340,.F.);
#468=ORIENTED_EDGE('',*,*,#351,.F.);
#469=ORIENTED_EDGE('',*,*,#352,.F.);
#470=ORIENTED_EDGE('',*,*,#351,.T.);
#471=ORIENTED_EDGE('',*,*,#339,.F.);
#472=ORIENTED_EDGE('',*,*,#353,.F.);
#473=ORIENTED_EDGE('',*,*,#354,.F.);
#474=ORIENTED_EDGE('',*,*,#353,.T.);
#475=ORIENTED_EDGE('',*,*,#338,.F.);
#476=ORIENTED_EDGE('',*,*,#355,.F.);
#477=ORIENTED_EDGE('',*,*,#311,.T.);
#478=ORIENTED_EDGE('',*,*,#356,.F.);
#479=ORIENTED_EDGE('',*,*,#355,.T.);
#480=ORIENTED_EDGE('',*,*,#337,.F.);
#481=ORIENTED_EDGE('',*,*,#350,.T.);
#482=ORIENTED_EDGE('',*,*,#352,.T.);
#483=ORIENTED_EDGE('',*,*,#354,.T.);
#484=ORIENTED_EDGE('',*,*,#356,.T.);
#485=ORIENTED_EDGE('',*,*,#310,.F.);
#486=ORIENTED_EDGE('',*,*,#317,.F.);
#487=ORIENTED_EDGE('',*,*,#316,.T.);
#488=ORIENTED_EDGE('',*,*,#325,.T.);
#489=ORIENTED_EDGE('',*,*,#328,.F.);
#490=ORIENTED_EDGE('',*,*,#331,.T.);
#491=ORIENTED_EDGE('',*,*,#342,.F.);
#492=ORIENTED_EDGE('',*,*,#344,.T.);
#493=ORIENTED_EDGE('',*,*,#346,.F.);
#494=ORIENTED_EDGE('',*,*,#348,.T.);
#495=ORIENTED_EDGE('',*,*,#349,.F.);
#496=ORIENTED_EDGE('',*,*,#320,.T.);
#497=ORIENTED_EDGE('',*,*,#285,.T.);
#498=ORIENTED_EDGE('',*,*,#289,.T.);
#499=ORIENTED_EDGE('',*,*,#293,.T.);
#500=ORIENTED_EDGE('',*,*,#297,.T.);
#501=CYLINDRICAL_SURFACE('',#557,2.35);
#502=CYLINDRICAL_SURFACE('',#562,2.34999999999999);
#503=CYLINDRICAL_SURFACE('',#567,2.35);
#504=CYLINDRICAL_SURFACE('',#572,2.34999999999999);
#505=CYLINDRICAL_SURFACE('',#577,1.7);
#506=CYLINDRICAL_SURFACE('',#579,1.7);
#507=CYLINDRICAL_SURFACE('',#581,1.7);
#508=CYLINDRICAL_SURFACE('',#583,1.7);
#509=CYLINDRICAL_SURFACE('',#589,5.);
#510=CYLINDRICAL_SURFACE('',#597,5.);
#511=CYLINDRICAL_SURFACE('',#600,5.);
#512=CYLINDRICAL_SURFACE('',#603,5.);
#513=ADVANCED_FACE('',(#45),#501,.F.);
#514=ADVANCED_FACE('',(#46,#15),#27,.T.);
#515=ADVANCED_FACE('',(#47),#502,.F.);
#516=ADVANCED_FACE('',(#48,#16),#28,.T.);
#517=ADVANCED_FACE('',(#49),#503,.F.);
#518=ADVANCED_FACE('',(#50,#17),#29,.T.);
#519=ADVANCED_FACE('',(#51),#504,.F.);
#520=ADVANCED_FACE('',(#52,#18),#30,.T.);
#521=ADVANCED_FACE('',(#53),#505,.F.);
#522=ADVANCED_FACE('',(#54),#506,.F.);
#523=ADVANCED_FACE('',(#55),#507,.F.);
#524=ADVANCED_FACE('',(#56),#508,.F.);
#525=ADVANCED_FACE('',(#57),#31,.F.);
#526=ADVANCED_FACE('',(#58),#32,.F.);
#527=ADVANCED_FACE('',(#59),#33,.T.);
#528=ADVANCED_FACE('',(#60),#34,.T.);
#529=ADVANCED_FACE('',(#61),#509,.T.);
#530=ADVANCED_FACE('',(#62),#35,.T.);
#531=ADVANCED_FACE('',(#63,#19,#20,#21,#22),#36,.T.);
#532=ADVANCED_FACE('',(#64),#510,.T.);
#533=ADVANCED_FACE('',(#65),#37,.T.);
#534=ADVANCED_FACE('',(#66),#511,.T.);
#535=ADVANCED_FACE('',(#67),#38,.T.);
#536=ADVANCED_FACE('',(#68),#512,.T.);
#537=ADVANCED_FACE('',(#69),#39,.T.);
#538=ADVANCED_FACE('',(#70),#40,.T.);
#539=ADVANCED_FACE('',(#71),#41,.T.);
#540=ADVANCED_FACE('',(#72),#42,.T.);
#541=ADVANCED_FACE('',(#73),#43,.T.);
#542=ADVANCED_FACE('',(#74,#23,#24,#25,#26),#44,.F.);
#543=CLOSED_SHELL('',(#513,#514,#515,#516,#517,#518,#519,#520,#521,#522,
#523,#524,#525,#526,#527,#528,#529,#530,#531,#532,#533,#534,#535,#536,#537,
#538,#539,#540,#541,#542));
#544=DERIVED_UNIT_ELEMENT(#546,1.);
#545=DERIVED_UNIT_ELEMENT(#925,-3.);
#546=(
MASS_UNIT()
NAMED_UNIT(*)
SI_UNIT(.KILO.,.GRAM.)
);
#547=DERIVED_UNIT((#544,#545));
#548=MEASURE_REPRESENTATION_ITEM('density measure',
POSITIVE_RATIO_MEASURE(7850.),#547);
#549=PROPERTY_DEFINITION_REPRESENTATION(#554,#551);
#550=PROPERTY_DEFINITION_REPRESENTATION(#555,#552);
#551=REPRESENTATION('material name',(#553),#922);
#552=REPRESENTATION('density',(#548),#922);
#553=DESCRIPTIVE_REPRESENTATION_ITEM('Steel','Steel');
#554=PROPERTY_DEFINITION('material property','material name',#932);
#555=PROPERTY_DEFINITION('material property','density of part',#932);
#556=AXIS2_PLACEMENT_3D('',#769,#611,#612);
#557=AXIS2_PLACEMENT_3D('',#770,#613,#614);
#558=AXIS2_PLACEMENT_3D('',#772,#615,#616);
#559=AXIS2_PLACEMENT_3D('',#775,#618,#619);
#560=AXIS2_PLACEMENT_3D('',#776,#620,#621);
#561=AXIS2_PLACEMENT_3D('',#778,#622,#623);
#562=AXIS2_PLACEMENT_3D('',#779,#624,#625);
#563=AXIS2_PLACEMENT_3D('',#781,#626,#627);
#564=AXIS2_PLACEMENT_3D('',#784,#629,#630);
#565=AXIS2_PLACEMENT_3D('',#785,#631,#632);
#566=AXIS2_PLACEMENT_3D('',#787,#633,#634);
#567=AXIS2_PLACEMENT_3D('',#788,#635,#636);
#568=AXIS2_PLACEMENT_3D('',#790,#637,#638);
#569=AXIS2_PLACEMENT_3D('',#793,#640,#641);
#570=AXIS2_PLACEMENT_3D('',#794,#642,#643);
#571=AXIS2_PLACEMENT_3D('',#796,#644,#645);
#572=AXIS2_PLACEMENT_3D('',#797,#646,#647);
#573=AXIS2_PLACEMENT_3D('',#799,#648,#649);
#574=AXIS2_PLACEMENT_3D('',#802,#651,#652);
#575=AXIS2_PLACEMENT_3D('',#803,#653,#654);
#576=AXIS2_PLACEMENT_3D('',#805,#655,#656);
#577=AXIS2_PLACEMENT_3D('',#806,#657,#658);
#578=AXIS2_PLACEMENT_3D('',#808,#659,#660);
#579=AXIS2_PLACEMENT_3D('',#810,#662,#663);
#580=AXIS2_PLACEMENT_3D('',#812,#664,#665);
#581=AXIS2_PLACEMENT_3D('',#814,#667,#668);
#582=AXIS2_PLACEMENT_3D('',#816,#669,#670);
#583=AXIS2_PLACEMENT_3D('',#818,#672,#673);
#584=AXIS2_PLACEMENT_3D('',#820,#674,#675);
#585=AXIS2_PLACEMENT_3D('',#822,#677,#678);
#586=AXIS2_PLACEMENT_3D('',#831,#683,#684);
#587=AXIS2_PLACEMENT_3D('',#840,#689,#690);
#588=AXIS2_PLACEMENT_3D('',#851,#697,#698);
#589=AXIS2_PLACEMENT_3D('',#857,#702,#703);
#590=AXIS2_PLACEMENT_3D('',#859,#704,#705);
#591=AXIS2_PLACEMENT_3D('',#862,#707,#708);
#592=AXIS2_PLACEMENT_3D('',#863,#709,#710);
#593=AXIS2_PLACEMENT_3D('',#869,#714,#715);
#594=AXIS2_PLACEMENT_3D('',#871,#716,#717);
#595=AXIS2_PLACEMENT_3D('',#875,#719,#720);
#596=AXIS2_PLACEMENT_3D('',#878,#722,#723);
#597=AXIS2_PLACEMENT_3D('',#886,#728,#729);
#598=AXIS2_PLACEMENT_3D('',#889,#731,#732);
#599=AXIS2_PLACEMENT_3D('',#890,#733,#734);
#600=AXIS2_PLACEMENT_3D('',#894,#737,#738);
#601=AXIS2_PLACEMENT_3D('',#897,#740,#741);
#602=AXIS2_PLACEMENT_3D('',#898,#742,#743);
#603=AXIS2_PLACEMENT_3D('',#902,#746,#747);
#604=AXIS2_PLACEMENT_3D('',#903,#748,#749);
#605=AXIS2_PLACEMENT_3D('',#904,#750,#751);
#606=AXIS2_PLACEMENT_3D('',#908,#754,#755);
#607=AXIS2_PLACEMENT_3D('',#912,#758,#759);
#608=AXIS2_PLACEMENT_3D('',#916,#762,#763);
#609=AXIS2_PLACEMENT_3D('',#918,#765,#766);
#610=AXIS2_PLACEMENT_3D('',#919,#767,#768);
#611=DIRECTION('axis',(0.,0.,1.));
#612=DIRECTION('refdir',(1.,0.,0.));
#613=DIRECTION('center_axis',(0.,1.,0.));
#614=DIRECTION('ref_axis',(1.,0.,0.));
#615=DIRECTION('center_axis',(0.,1.,0.));
#616=DIRECTION('ref_axis',(1.,0.,0.));
#617=DIRECTION('',(0.,1.,0.));
#618=DIRECTION('center_axis',(0.,1.,0.));
#619=DIRECTION('ref_axis',(1.,0.,0.));
#620=DIRECTION('center_axis',(0.,-1.,0.));
#621=DIRECTION('ref_axis',(1.,0.,0.));
#622=DIRECTION('center_axis',(0.,-1.,0.));
#623=DIRECTION('ref_axis',(-1.,0.,0.));
#624=DIRECTION('center_axis',(0.,1.,0.));
#625=DIRECTION('ref_axis',(1.,0.,0.));
#626=DIRECTION('center_axis',(0.,1.,0.));
#627=DIRECTION('ref_axis',(1.,0.,0.));
#628=DIRECTION('',(0.,1.,0.));
#629=DIRECTION('center_axis',(0.,1.,0.));
#630=DIRECTION('ref_axis',(1.,0.,0.));
#631=DIRECTION('center_axis',(0.,-1.,0.));
#632=DIRECTION('ref_axis',(1.,0.,0.));
#633=DIRECTION('center_axis',(0.,-1.,0.));
#634=DIRECTION('ref_axis',(-1.,0.,0.));
#635=DIRECTION('center_axis',(0.,1.,0.));
#636=DIRECTION('ref_axis',(1.,0.,0.));
#637=DIRECTION('center_axis',(0.,1.,0.));
#638=DIRECTION('ref_axis',(1.,0.,0.));
#639=DIRECTION('',(0.,1.,0.));
#640=DIRECTION('center_axis',(0.,1.,0.));
#641=DIRECTION('ref_axis',(1.,0.,0.));
#642=DIRECTION('center_axis',(0.,-1.,0.));
#643=DIRECTION('ref_axis',(1.,0.,0.));
#644=DIRECTION('center_axis',(0.,-1.,0.));
#645=DIRECTION('ref_axis',(-1.,0.,0.));
#646=DIRECTION('center_axis',(0.,1.,0.));
#647=DIRECTION('ref_axis',(1.,0.,0.));
#648=DIRECTION('center_axis',(0.,1.,0.));
#649=DIRECTION('ref_axis',(1.,0.,0.));
#650=DIRECTION('',(0.,1.,0.));
#651=DIRECTION('center_axis',(0.,1.,0.));
#652=DIRECTION('ref_axis',(1.,0.,0.));
#653=DIRECTION('center_axis',(0.,-1.,0.));
#654=DIRECTION('ref_axis',(1.,0.,0.));
#655=DIRECTION('center_axis',(0.,-1.,0.));
#656=DIRECTION('ref_axis',(-1.,0.,0.));
#657=DIRECTION('center_axis',(0.,-1.,0.));
#658=DIRECTION('ref_axis',(-1.,0.,0.));
#659=DIRECTION('center_axis',(0.,-1.,0.));
#660=DIRECTION('ref_axis',(-1.,0.,0.));
#661=DIRECTION('',(0.,-1.,0.));
#662=DIRECTION('center_axis',(0.,-1.,0.));
#663=DIRECTION('ref_axis',(-1.,0.,0.));
#664=DIRECTION('center_axis',(0.,-1.,0.));
#665=DIRECTION('ref_axis',(-1.,0.,0.));
#666=DIRECTION('',(0.,-1.,0.));
#667=DIRECTION('center_axis',(0.,-1.,0.));
#668=DIRECTION('ref_axis',(-1.,0.,0.));
#669=DIRECTION('center_axis',(0.,-1.,0.));
#670=DIRECTION('ref_axis',(-1.,0.,0.));
#671=DIRECTION('',(0.,-1.,0.));
#672=DIRECTION('center_axis',(0.,-1.,0.));
#673=DIRECTION('ref_axis',(-1.,0.,0.));
#674=DIRECTION('center_axis',(0.,-1.,0.));
#675=DIRECTION('ref_axis',(-1.,0.,0.));
#676=DIRECTION('',(0.,-1.,0.));
#677=DIRECTION('center_axis',(-1.,0.,0.));
#678=DIRECTION('ref_axis',(0.,1.,0.));
#679=DIRECTION('',(0.,1.,0.));
#680=DIRECTION('',(0.,0.,-1.));
#681=DIRECTION('',(0.,-1.,0.));
#682=DIRECTION('',(0.,0.,-1.));
#683=DIRECTION('center_axis',(1.,0.,0.));
#684=DIRECTION('ref_axis',(0.,-1.,0.));
#685=DIRECTION('',(0.,-1.,0.));
#686=DIRECTION('',(0.,0.,1.));
#687=DIRECTION('',(0.,1.,0.));
#688=DIRECTION('',(0.,0.,-1.));
#689=DIRECTION('center_axis',(0.,0.,1.));
#690=DIRECTION('ref_axis',(1.,0.,0.));
#691=DIRECTION('',(-1.,0.,0.));
#692=DIRECTION('',(1.,0.,0.));
#693=DIRECTION('',(0.,1.,0.));
#694=DIRECTION('',(-1.,0.,0.));
#695=DIRECTION('',(0.,-1.,0.));
#696=DIRECTION('',(1.,0.,0.));
#697=DIRECTION('center_axis',(0.,0.,-1.));
#698=DIRECTION('ref_axis',(-1.,0.,0.));
#699=DIRECTION('',(-1.,0.,0.));
#700=DIRECTION('',(0.,1.,0.));
#701=DIRECTION('',(1.,0.,0.));
#702=DIRECTION('center_axis',(0.,1.,0.));
#703=DIRECTION('ref_axis',(-0.707106781186547,0.,0.707106781186547));
#704=DIRECTION('center_axis',(0.,-1.,0.));
#705=DIRECTION('ref_axis',(-0.707106781186547,0.,0.707106781186547));
#706=DIRECTION('',(0.,-1.,0.));
#707=DIRECTION('center_axis',(0.,1.,0.));
#708=DIRECTION('ref_axis',(-0.707106781186547,0.,0.707106781186547));
#709=DIRECTION('center_axis',(-1.,0.,0.));
#710=DIRECTION('ref_axis',(0.,0.,1.));
#711=DIRECTION('',(0.,0.,1.));
#712=DIRECTION('',(0.,1.,0.));
#713=DIRECTION('',(0.,0.,-1.));
#714=DIRECTION('center_axis',(0.,1.,0.));
#715=DIRECTION('ref_axis',(0.,0.,1.));
#716=DIRECTION('center_axis',(0.,-1.,0.));
#717=DIRECTION('ref_axis',(0.707106781186547,0.,0.707106781186547));
#718=DIRECTION('',(0.,0.,-1.));
#719=DIRECTION('center_axis',(0.,-1.,0.));
#720=DIRECTION('ref_axis',(0.707106781186547,0.,-0.707106781186547));
#721=DIRECTION('',(-1.,0.,0.));
#722=DIRECTION('center_axis',(0.,-1.,0.));
#723=DIRECTION('ref_axis',(-0.707106781186547,0.,-0.707106781186547));
#724=DIRECTION('',(-1.,0.,0.));
#725=DIRECTION('',(0.,0.,-1.));
#726=DIRECTION('',(1.,0.,0.));
#727=DIRECTION('',(0.,0.,1.));
#728=DIRECTION('center_axis',(0.,1.,0.));
#729=DIRECTION('ref_axis',(-0.707106781186547,0.,-0.707106781186547));
#730=DIRECTION('',(0.,-1.,0.));
#731=DIRECTION('center_axis',(0.,1.,0.));
#732=DIRECTION('ref_axis',(-0.707106781186547,0.,-0.707106781186547));
#733=DIRECTION('center_axis',(0.,0.,-1.));
#734=DIRECTION('ref_axis',(-1.,0.,0.));
#735=DIRECTION('',(0.,1.,0.));
#736=DIRECTION('',(1.,0.,0.));
#737=DIRECTION('center_axis',(0.,1.,0.));
#738=DIRECTION('ref_axis',(0.707106781186547,0.,-0.707106781186547));
#739=DIRECTION('',(0.,-1.,0.));
#740=DIRECTION('center_axis',(0.,1.,0.));
#741=DIRECTION('ref_axis',(0.707106781186547,0.,-0.707106781186547));
#742=DIRECTION('center_axis',(1.,0.,0.));
#743=DIRECTION('ref_axis',(0.,0.,-1.));
#744=DIRECTION('',(0.,1.,0.));
#745=DIRECTION('',(0.,0.,1.));
#746=DIRECTION('center_axis',(0.,1.,0.));
#747=DIRECTION('ref_axis',(0.707106781186547,0.,0.707106781186547));
#748=DIRECTION('center_axis',(0.,1.,0.));
#749=DIRECTION('ref_axis',(0.707106781186547,0.,0.707106781186547));
#750=DIRECTION('center_axis',(-1.,0.,0.));
#751=DIRECTION('ref_axis',(0.,0.,1.));
#752=DIRECTION('',(0.,0.,-1.));
#753=DIRECTION('',(0.,1.,0.));
#754=DIRECTION('center_axis',(0.,0.,1.));
#755=DIRECTION('ref_axis',(1.,0.,0.));
#756=DIRECTION('',(-1.,0.,0.));
#757=DIRECTION('',(0.,1.,0.));
#758=DIRECTION('center_axis',(1.,0.,0.));
#759=DIRECTION('ref_axis',(0.,0.,-1.));
#760=DIRECTION('',(0.,0.,1.));
#761=DIRECTION('',(0.,1.,0.));
#762=DIRECTION('center_axis',(0.,0.,-1.));
#763=DIRECTION('ref_axis',(-1.,0.,0.));
#764=DIRECTION('',(1.,0.,0.));
#765=DIRECTION('center_axis',(0.,1.,0.));
#766=DIRECTION('ref_axis',(0.,0.,1.));
#767=DIRECTION('center_axis',(0.,1.,0.));
#768=DIRECTION('ref_axis',(1.,0.,0.));
#769=CARTESIAN_POINT('',(0.,0.,0.));
#770=CARTESIAN_POINT('Origin',(-5.,0.,-5.));
#771=CARTESIAN_POINT('',(-7.35,0.,-5.));
#772=CARTESIAN_POINT('Origin',(-5.,0.,-5.));
#773=CARTESIAN_POINT('',(-7.35,4.,-5.));
#774=CARTESIAN_POINT('',(-7.35,0.,-5.));
#775=CARTESIAN_POINT('Origin',(-5.,4.,-5.));
#776=CARTESIAN_POINT('Origin',(-5.,4.,-5.));
#777=CARTESIAN_POINT('',(-3.3,4.,-5.));
#778=CARTESIAN_POINT('Origin',(-5.,4.,-5.));
#779=CARTESIAN_POINT('Origin',(83.3,0.,-5.));
#780=CARTESIAN_POINT('',(80.95,0.,-5.));
#781=CARTESIAN_POINT('Origin',(83.3,0.,-5.));
#782=CARTESIAN_POINT('',(80.95,4.,-5.));
#783=CARTESIAN_POINT('',(80.95,0.,-5.));
#784=CARTESIAN_POINT('Origin',(83.3,4.,-5.));
#785=CARTESIAN_POINT('Origin',(83.3,4.,-5.));
#786=CARTESIAN_POINT('',(85.,4.,-5.));
#787=CARTESIAN_POINT('Origin',(83.3,4.,-5.));
#788=CARTESIAN_POINT('Origin',(-5.,0.,88.3));
#789=CARTESIAN_POINT('',(-7.35,0.,88.3));
#790=CARTESIAN_POINT('Origin',(-5.,0.,88.3));
#791=CARTESIAN_POINT('',(-7.35,4.,88.3));
#792=CARTESIAN_POINT('',(-7.35,0.,88.3));
#793=CARTESIAN_POINT('Origin',(-5.,4.,88.3));
#794=CARTESIAN_POINT('Origin',(-5.,4.,88.3));
#795=CARTESIAN_POINT('',(-3.3,4.,88.3));
#796=CARTESIAN_POINT('Origin',(-5.,4.,88.3));
#797=CARTESIAN_POINT('Origin',(83.3,0.,88.3));
#798=CARTESIAN_POINT('',(80.95,0.,88.3));
#799=CARTESIAN_POINT('Origin',(83.3,0.,88.3));
#800=CARTESIAN_POINT('',(80.95,4.,88.3));
#801=CARTESIAN_POINT('',(80.95,0.,88.3));
#802=CARTESIAN_POINT('Origin',(83.3,4.,88.3));
#803=CARTESIAN_POINT('Origin',(83.3,4.,88.3));
#804=CARTESIAN_POINT('',(85.,4.,88.3));
#805=CARTESIAN_POINT('Origin',(83.3,4.,88.3));
#806=CARTESIAN_POINT('Origin',(-5.,13.,-5.));
#807=CARTESIAN_POINT('',(-3.3,13.,-5.));
#808=CARTESIAN_POINT('Origin',(-5.,13.,-5.));
#809=CARTESIAN_POINT('',(-3.3,13.,-5.));
#810=CARTESIAN_POINT('Origin',(-5.,13.,88.3));
#811=CARTESIAN_POINT('',(-3.3,13.,88.3));
#812=CARTESIAN_POINT('Origin',(-5.,13.,88.3));
#813=CARTESIAN_POINT('',(-3.3,13.,88.3));
#814=CARTESIAN_POINT('Origin',(83.3,13.,-5.));
#815=CARTESIAN_POINT('',(85.,13.,-5.));
#816=CARTESIAN_POINT('Origin',(83.3,13.,-5.));
#817=CARTESIAN_POINT('',(85.,13.,-5.));
#818=CARTESIAN_POINT('Origin',(83.3,13.,88.3));
#819=CARTESIAN_POINT('',(85.,13.,88.3));
#820=CARTESIAN_POINT('Origin',(83.3,13.,88.3));
#821=CARTESIAN_POINT('',(85.,13.,88.3));
#822=CARTESIAN_POINT('Origin',(59.3,2.99999985098839,93.3));
#823=CARTESIAN_POINT('',(59.3,2.99999985098839,93.3));
#824=CARTESIAN_POINT('',(59.3,13.,93.3));
#825=CARTESIAN_POINT('',(59.3,1.49999992549419,93.3));
#826=CARTESIAN_POINT('',(59.3,2.99999985098839,83.3));
#827=CARTESIAN_POINT('',(59.3,2.99999985098839,93.3));
#828=CARTESIAN_POINT('',(59.3,13.,83.3));
#829=CARTESIAN_POINT('',(59.3,2.99999992549419,83.3));
#830=CARTESIAN_POINT('',(59.3,13.,67.475));
#831=CARTESIAN_POINT('Origin',(71.3,13.,93.3));
#832=CARTESIAN_POINT('',(71.3,13.,93.3));
#833=CARTESIAN_POINT('',(71.3,2.99999985098839,93.3));
#834=CARTESIAN_POINT('',(71.3,6.5,93.3));
#835=CARTESIAN_POINT('',(71.3,13.,83.3));
#836=CARTESIAN_POINT('',(71.3,13.,67.475));
#837=CARTESIAN_POINT('',(71.3,2.99999985098839,83.3));
#838=CARTESIAN_POINT('',(71.3,8.,83.3));
#839=CARTESIAN_POINT('',(71.3,2.99999985098839,93.3));
#840=CARTESIAN_POINT('Origin',(-10.,0.,93.3));
#841=CARTESIAN_POINT('',(30.65,2.99999985098839,93.3));
#842=CARTESIAN_POINT('',(-5.,13.,93.3));
#843=CARTESIAN_POINT('',(-10.,13.,93.3));
#844=CARTESIAN_POINT('',(-5.,0.,93.3));
#845=CARTESIAN_POINT('',(-5.,0.,93.3));
#846=CARTESIAN_POINT('',(83.3,0.,93.3));
#847=CARTESIAN_POINT('',(88.3,0.,93.3));
#848=CARTESIAN_POINT('',(83.3,13.,93.3));
#849=CARTESIAN_POINT('',(83.3,0.,93.3));
#850=CARTESIAN_POINT('',(-10.,13.,93.3));
#851=CARTESIAN_POINT('Origin',(78.3,3.,83.3));
#852=CARTESIAN_POINT('',(78.3,13.,83.3));
#853=CARTESIAN_POINT('',(78.3,13.,83.3));
#854=CARTESIAN_POINT('',(78.3,3.,83.3));
#855=CARTESIAN_POINT('',(78.3,3.,83.3));
#856=CARTESIAN_POINT('',(58.725,3.,83.3));
#857=CARTESIAN_POINT('Origin',(-5.,0.,88.3));
#858=CARTESIAN_POINT('',(-10.,13.,88.3));
#859=CARTESIAN_POINT('Origin',(-5.,13.,88.3));
#860=CARTESIAN_POINT('',(-10.,0.,88.3));
#861=CARTESIAN_POINT('',(-10.,0.,88.3));
#862=CARTESIAN_POINT('Origin',(-5.,0.,88.3));
#863=CARTESIAN_POINT('Origin',(-10.,0.,-10.));
#864=CARTESIAN_POINT('',(-10.,13.,-5.));
#865=CARTESIAN_POINT('',(-10.,13.,-10.));
#866=CARTESIAN_POINT('',(-10.,0.,-5.));
#867=CARTESIAN_POINT('',(-10.,0.,-5.));
#868=CARTESIAN_POINT('',(-10.,0.,93.3));
#869=CARTESIAN_POINT('Origin',(39.15,13.,41.65));
#870=CARTESIAN_POINT('',(88.3,13.,88.3));
#871=CARTESIAN_POINT('Origin',(83.3,13.,88.3));
#872=CARTESIAN_POINT('',(88.3,13.,-5.));
#873=CARTESIAN_POINT('',(88.3,13.,93.3));
#874=CARTESIAN_POINT('',(83.3,13.,-10.));
#875=CARTESIAN_POINT('Origin',(83.3,13.,-5.));
#876=CARTESIAN_POINT('',(-5.,13.,-10.));
#877=CARTESIAN_POINT('',(88.3,13.,-10.));
#878=CARTESIAN_POINT('Origin',(-5.,13.,-5.));
#879=CARTESIAN_POINT('',(0.,13.,83.3));
#880=CARTESIAN_POINT('',(78.3,13.,83.3));
#881=CARTESIAN_POINT('',(0.,13.,0.));
#882=CARTESIAN_POINT('',(0.,13.,83.3));
#883=CARTESIAN_POINT('',(78.3,13.,0.));
#884=CARTESIAN_POINT('',(0.,13.,0.));
#885=CARTESIAN_POINT('',(78.3,13.,0.));
#886=CARTESIAN_POINT('Origin',(-5.,0.,-5.));
#887=CARTESIAN_POINT('',(-5.,0.,-10.));
#888=CARTESIAN_POINT('',(-5.,0.,-10.));
#889=CARTESIAN_POINT('Origin',(-5.,0.,-5.));
#890=CARTESIAN_POINT('Origin',(88.3,0.,-10.));
#891=CARTESIAN_POINT('',(83.3,0.,-10.));
#892=CARTESIAN_POINT('',(83.3,0.,-10.));
#893=CARTESIAN_POINT('',(-10.,0.,-10.));
#894=CARTESIAN_POINT('Origin',(83.3,0.,-5.));
#895=CARTESIAN_POINT('',(88.3,0.,-5.));
#896=CARTESIAN_POINT('',(88.3,0.,-5.));
#897=CARTESIAN_POINT('Origin',(83.3,0.,-5.));
#898=CARTESIAN_POINT('Origin',(88.3,0.,93.3));
#899=CARTESIAN_POINT('',(88.3,0.,88.3));
#900=CARTESIAN_POINT('',(88.3,0.,88.3));
#901=CARTESIAN_POINT('',(88.3,0.,-10.));
#902=CARTESIAN_POINT('Origin',(83.3,0.,88.3));
#903=CARTESIAN_POINT('Origin',(83.3,0.,88.3));
#904=CARTESIAN_POINT('Origin',(78.3,3.,0.));
#905=CARTESIAN_POINT('',(78.3,3.,0.));
#906=CARTESIAN_POINT('',(78.3,3.,20.825));
#907=CARTESIAN_POINT('',(78.3,3.,0.));
#908=CARTESIAN_POINT('Origin',(0.,3.,0.));
#909=CARTESIAN_POINT('',(0.,3.,0.));
#910=CARTESIAN_POINT('',(19.575,3.,0.));
#911=CARTESIAN_POINT('',(0.,3.,0.));
#912=CARTESIAN_POINT('Origin',(0.,3.,83.3));
#913=CARTESIAN_POINT('',(0.,3.,83.3));
#914=CARTESIAN_POINT('',(0.,3.,62.475));
#915=CARTESIAN_POINT('',(0.,3.,83.3));
#916=CARTESIAN_POINT('Origin',(78.3,3.,83.3));
#917=CARTESIAN_POINT('',(58.725,3.,83.3));
#918=CARTESIAN_POINT('Origin',(39.15,3.,41.65));
#919=CARTESIAN_POINT('Origin',(39.15,0.,41.65));
#920=UNCERTAINTY_MEASURE_WITH_UNIT(LENGTH_MEASURE(0.01),#924,
'DISTANCE_ACCURACY_VALUE',
'Maximum model space distance between geometric entities at asserted c
onnectivities');
#921=UNCERTAINTY_MEASURE_WITH_UNIT(LENGTH_MEASURE(0.01),#924,
'DISTANCE_ACCURACY_VALUE',
'Maximum model space distance between geometric entities at asserted c
onnectivities');
#922=(
GEOMETRIC_REPRESENTATION_CONTEXT(3)
GLOBAL_UNCERTAINTY_ASSIGNED_CONTEXT((#920))
GLOBAL_UNIT_ASSIGNED_CONTEXT((#924,#926,#927))
REPRESENTATION_CONTEXT('','3D')
);
#923=(
GEOMETRIC_REPRESENTATION_CONTEXT(3)
GLOBAL_UNCERTAINTY_ASSIGNED_CONTEXT((#921))
GLOBAL_UNIT_ASSIGNED_CONTEXT((#924,#926,#927))
REPRESENTATION_CONTEXT('','3D')
);
#924=(
LENGTH_UNIT()
NAMED_UNIT(*)
SI_UNIT(.MILLI.,.METRE.)
);
#925=(
LENGTH_UNIT()
NAMED_UNIT(*)
SI_UNIT($,.METRE.)
);
#926=(
NAMED_UNIT(*)
PLANE_ANGLE_UNIT()
SI_UNIT($,.RADIAN.)
);
#927=(
NAMED_UNIT(*)
SI_UNIT($,.STERADIAN.)
SOLID_ANGLE_UNIT()
);
#928=SHAPE_DEFINITION_REPRESENTATION(#929,#930);
#929=PRODUCT_DEFINITION_SHAPE('',$,#932);
#930=SHAPE_REPRESENTATION('',(#556),#922);
#931=PRODUCT_DEFINITION_CONTEXT('part definition',#936,'design');
#932=PRODUCT_DEFINITION('2026-06-07-13-13-15-053','baseplate v2.1',#933,
#931);
#933=PRODUCT_DEFINITION_FORMATION('',$,#938);
#934=PRODUCT_RELATED_PRODUCT_CATEGORY('baseplate v2.1','baseplate v2.1',
(#938));
#935=APPLICATION_PROTOCOL_DEFINITION('international standard',
'automotive_design',2009,#936);
#936=APPLICATION_CONTEXT(
'Core Data for Automotive Mechanical Design Process');
#937=PRODUCT_CONTEXT('part definition',#936,'mechanical');
#938=PRODUCT('2026-06-07-13-13-15-053','baseplate v2.1',$,(#937));
#939=PRESENTATION_STYLE_ASSIGNMENT((#940));
#940=SURFACE_STYLE_USAGE(.BOTH.,#941);
#941=SURFACE_SIDE_STYLE('',(#942));
#942=SURFACE_STYLE_FILL_AREA(#943);
#943=FILL_AREA_STYLE('Steel - Satin',(#944));
#944=FILL_AREA_STYLE_COLOUR('Steel - Satin',#945);
#945=COLOUR_RGB('Steel - Satin',0.627450980392157,0.627450980392157,0.627450980392157);
ENDSEC;
END-ISO-10303-21;
